<?xml version="1.0" encoding="UTF-8" standalone="no"?>
<svg
   xmlns:dc="http://purl.org/dc/elements/1.1/"
   xmlns:cc="http://creativecommons.org/ns#"
   xmlns:rdf="http://www.w3.org/1999/02/22-rdf-syntax-ns#"
   xmlns:svg="http://www.w3.org/2000/svg"
   xmlns="http://www.w3.org/2000/svg"
   xmlns:sodipodi="http://sodipodi.sourceforge.net/DTD/sodipodi-0.dtd"
   xmlns:inkscape="http://www.inkscape.org/namespaces/inkscape"
   width="36mm"
   height="36mm"
   viewBox="0 0 1496.693 1662.9922"
   id="jh_logo"
   version="1.1"
   sodipodi:docname="jh-lasercut.svg"
   inkscape:version="0.92.3 (2405546, 2018-03-11)"
   style="shape-rendering:crispEdges">
  <metadata
     id="metadata889">
    <rdf:RDF>
      <cc:Work
         rdf:about="">
        <dc:format>image/svg+xml</dc:format>
        <dc:type
           rdf:resource="http://purl.org/dc/dcmitype/StillImage" />
        <dc:title></dc:title>
      </cc:Work>
    </rdf:RDF>
  </metadata>
  <defs
     id="defs887" />
  <sodipodi:namedview
     pagecolor="#ffffff"
     bordercolor="#666666"
     borderopacity="1"
     objecttolerance="10"
     gridtolerance="10"
     guidetolerance="10"
     inkscape:pageopacity="0"
     inkscape:pageshadow="2"
     inkscape:window-width="1916"
     inkscape:window-height="1040"
     id="namedview885"
     showgrid="false"
     inkscape:zoom="3.5274986"
     inkscape:cx="84.291108"
     inkscape:cy="80.476963"
     inkscape:window-x="0"
     inkscape:window-y="18"
     inkscape:window-maximized="0"
     inkscape:current-layer="jh_logo"
     units="mm" />
  <path
     style="fill:none;fill-opacity:1;stroke:#ff0000;stroke-width:0.37795275;stroke-linecap:round;stroke-linejoin:round;stroke-miterlimit:4;stroke-dasharray:none;stroke-opacity:1;paint-order:normal"
     d="M 52.148438 83.916016 L 52.148438 105.10938 L 83.916016 105.10938 L 83.916016 83.916016 L 73.318359 83.916016 L 73.318359 94.511719 L 62.744141 94.511719 L 62.744141 83.916016 L 52.148438 83.916016 z "
     transform="matrix(12.222223,0,0,12.222223,-83.1496,0)"
     id="rect1960" />
  <path
     style="fill:none;fill-opacity:1;stroke:#ff0000;stroke-width:0.37795275;stroke-linecap:round;stroke-linejoin:round;stroke-miterlimit:4;stroke-dasharray:none;stroke-opacity:1;paint-order:normal"
     d="M 94.511719 73.318359 L 94.511719 83.916016 L 105.10938 83.916016 L 105.10938 73.318359 L 94.511719 73.318359 z "
     transform="matrix(12.222223,0,0,12.222223,-83.1496,0)"
     id="rect1938" />
  <path
     inkscape:connector-curvature="0"
     style="fill:none;stroke:#ff0000;stroke-width:4.61942291;stroke-miterlimit:4;stroke-dasharray:none;stroke-opacity:1"
     d="M 165.65883,119.57367 V 248.80444 H 36.422335 V 766.87435 1284.664 H 165.65883 v 129.5111 h 129.5173 v 129.2435 h 906.34077 v -129.2435 h 129.5172 V 1284.664 h 129.2366 V 766.87435 248.80444 H 1331.0341 V 119.57367 H 1071.9994 V 248.80444 H 942.48203 V 378.32829 H 554.21093 V 248.80444 H 424.69353 V 119.57367 Z"
     id="ears" />
  <g
     style="shape-rendering:crispEdges"
     id="eyes-3"
     transform="matrix(134.38321,0,0,134.38321,78.6015,-2042.0196)" />
  <path
     style="fill:none;fill-opacity:1;stroke:#ff0000;stroke-width:0.37795275;stroke-linecap:round;stroke-linejoin:round;stroke-miterlimit:4;stroke-dasharray:none;stroke-opacity:1;paint-order:normal"
     d="M 30.953125 73.318359 L 30.953125 83.916016 L 41.550781 83.916016 L 41.550781 73.318359 L 30.953125 73.318359 z "
     transform="matrix(12.222223,0,0,12.222223,-83.1496,0)"
     id="rect1883" />
  <path
     style="fill:#000000;fill-opacity:1;stroke:none;stroke-width:34.60552216;stroke-linecap:round;stroke-linejoin:round;stroke-miterlimit:4;stroke-dasharray:none;stroke-opacity:1"
     d="m 295.17613,637.36326 v 129.51109 h -129.5174 v 388.27855 h 129.5174 v 129.5111 h 129.5173 v 129.5111 H 1071.9993 V 1284.664 h 129.5175 v -129.5111 h 129.5175 V 766.87435 H 1201.5168 V 637.36326 Z m 0,258.75463 h 129.5173 V 1025.629 h -129.5173 z m 776.82317,0 h 129.5175 V 1025.629 H 1071.9993 Z M 554.21083,1025.629 h 129.5175 v 129.5239 h 129.2364 V 1025.629 h 129.5174 v 259.035 h -388.2713 z"
     id="rect909"
     inkscape:connector-curvature="0" />
</svg>
