<svg
    xmlns="http://www.w3.org/2000/svg"
    width="90%"
    height="90%"
    viewBox="0 0 11 11"
    id="jh_logo"
    shape-rendering="crispEdges">
    <g id="face">
        <rect id="left_eye" x="2" y="6" width="1" height="1" />
        <rect id="right_eye"  x="8" y="6" width="1" height="1" />
        <polygon id="mouth"
            points="4,7 4,9 7,9 7,7 6,7 6,8 5,8 5,7" />
    </g>
    <g id="head">
        <polygon id="ears"
            points="1,0 3,0 3,1 4,1 4,2 7,2 7,1 8,1 8,0 10,0 10,1 11,1 11,5                  9,5 9,4 2,4 2,5 0,5 0,1 1,1" />
        <polygon id="beard"
            points="0,5 0,9 1,9 1,10 2,10 2,11 9,11 9,10 10,10 10,9 11,9 11,5 10,5 10,8 9,8 9,9 8,9 8,10 3,10 3,9 2,9 2,8 1,8 1,5" />
    </g>
    <text id="url" x="2.65" y="10.7">www.jugendhackt.de</text>
</svg>